<svg width="400" height="365" viewBox="0 0 400 365" fill="none" xmlns="http://www.w3.org/2000/svg">
<g clip-path="url(#clip0_513_464)">
<path d="M195.542 0.185657C187.328 0.855547 180.173 3.14728 173.017 7.37816C167.448 10.6924 159.834 17.9554 155.815 23.8434C152.537 28.6385 149.294 36.6419 148.342 42.2831C148.201 43.2351 147.883 44.7511 147.672 45.6326C147.108 48.1006 147.179 57.2676 147.848 60.5817C149.153 67.3512 150.069 70.2072 152.537 75.4606C154.581 79.7267 155.709 81.4188 159.693 86.2844C164.205 91.7495 170.479 96.8263 176.225 99.6472C181.829 102.362 186.87 103.913 192.757 104.724C203.755 106.17 214.189 104.407 224.235 99.3653C228.289 97.355 231.144 95.2752 236.326 90.6564C237.877 89.2462 244.574 81.2076 244.574 80.714C244.574 80.573 244.998 79.7969 245.562 78.9862C246.09 78.2107 246.83 76.8356 247.218 75.9542C247.571 75.0728 248.099 74.1206 248.346 73.8036C248.593 73.5211 248.805 72.9222 248.805 72.4987C248.805 72.1109 248.946 71.6881 249.122 71.5822C249.792 71.1587 251.73 63.7547 252.33 59.383C253.035 54.4822 252.47 44.1518 251.307 40.1677C249.651 34.5617 249.016 32.9399 246.83 28.6032C245.209 25.3243 243.446 22.7152 240.697 19.401C237.595 15.6637 237.278 15.3111 235.234 13.7245C234.282 12.9489 232.66 11.6091 231.638 10.6924C227.76 7.23715 219.512 3.18254 213.202 1.63121C207.35 0.185656 201.217 -0.307948 195.542 0.185657ZM205.341 26.9814C211.686 28.4622 217.08 31.8822 220.675 36.6419C224.658 41.9658 226.033 45.9851 226.033 52.6841C225.998 57.7259 225.363 60.4055 223.037 65.0947C221.662 67.8448 218.525 71.4413 215.458 73.7679C207.703 79.6916 196.211 80.5023 187.611 75.7425C185.249 74.4382 181.477 71.3354 179.609 69.1491C177.635 66.8224 176.189 64.1782 174.92 60.617C174.004 58.008 173.933 57.4086 173.933 52.6841C173.933 47.9596 174.004 47.3602 174.92 44.7511C176.894 39.1804 179.256 35.7252 183.592 32.1995C189.549 27.3692 198.15 25.289 205.341 26.9814Z" fill="#E8B4B8"/>
<path d="M65.8555 81.8783C65.8555 82.6889 71.8475 94.324 74.3859 98.555C75.2315 99.9301 76.2893 101.693 76.7829 102.504C78.8979 105.994 79.9902 107.722 83.8678 113.328C87.5693 118.652 89.9312 121.825 95.0069 128.348C100.33 135.081 114.148 149.432 120.881 155.143C124.335 158.105 125.04 158.669 129.482 161.948C136.285 167.025 141.326 170.163 150.279 175.028C158.633 179.541 169.949 183.666 178.831 185.394C191.099 187.827 198.396 188.179 210.204 187.016C217.219 186.346 227.441 184.301 232.412 182.609C239.286 180.247 242.141 179.083 248.275 176.016C256.065 172.102 267.098 165.368 272.139 161.384C273.937 159.938 276.756 157.717 278.413 156.413C281.268 154.156 285.992 149.784 291.808 144.002C302.383 133.53 315.32 116.572 323.004 103.103C324.485 100.494 326.247 97.4619 326.882 96.4044C329.596 91.8207 334.496 81.8432 334.179 81.5256C333.615 80.9611 325.401 82.4778 320.537 84.0997C317.999 84.9103 315.814 85.6858 315.602 85.8268C315.426 85.9677 313.593 86.9199 311.548 87.9774C307.847 89.8461 302.313 93.7952 296.884 98.3784C289.27 104.866 285.675 107.793 282.291 110.401C278.131 113.575 270.023 119.145 266.111 121.472C264.701 122.319 262.233 123.799 260.647 124.716C259.096 125.668 255.959 127.396 253.738 128.559C251.518 129.758 249.332 130.921 248.909 131.168C247.041 132.331 235.126 137.197 230.473 138.713C223.071 141.111 220.11 141.816 214.611 142.627C213.342 142.803 211.297 143.085 210.028 143.297C206.292 143.861 188.385 143.72 185.882 143.121C184.718 142.838 183.203 142.627 182.533 142.591C181.229 142.591 177.246 141.816 174.179 140.969C165.86 138.713 164.414 138.255 158.492 135.858C148.235 131.732 135.051 124.54 124.018 117.03C118.554 113.328 110.059 106.805 105.899 103.068C97.1219 95.3112 91.4469 90.6924 88.4856 88.9296C83.269 85.8268 75.373 82.7597 70.6142 81.9841C69.4505 81.7724 67.8998 81.5256 67.1945 81.3846C65.9964 81.1729 65.8555 81.2437 65.8555 81.8783Z" fill="#E8B4B8"/>
<path d="M81.7182 201.329C81.2246 201.399 79.4972 201.646 77.8406 201.858C70.1563 202.81 62.9298 204.573 56.5143 207.041C55.5626 207.429 53.8706 208.064 52.8131 208.486C47.3141 210.567 35.7521 217.301 31.522 220.862C22.1807 228.724 15.589 236.305 11.1475 244.308C10.0195 246.353 6.74123 252.981 6.10672 254.532C5.85997 255.097 5.47222 255.978 5.29596 256.472C3.78021 260.139 1.55946 268.847 0.783957 274.277C0.00845286 279.742 -0.238298 288.274 0.255204 293.281C1.03071 301.038 3.32196 310.698 5.54271 315.528C5.89522 316.304 6.63545 317.961 7.12899 319.16C9.31446 324.378 15.0955 332.522 20.4183 337.917C28.702 346.343 38.5721 351.914 51.9318 355.722C58.3473 357.555 67.9354 358.225 76.4308 357.379C85.5606 356.497 99.3077 351.914 109.213 346.484C110.482 345.779 112.351 344.757 113.408 344.157C116.369 342.536 129.412 333.721 133.218 330.83C144.217 322.368 146.367 320.464 147.988 317.644C149.575 314.858 150.103 312.955 150.35 309.323C150.526 306.467 150.42 305.586 149.786 303.505C147.706 296.807 142.419 291.87 136.003 290.672C130.328 289.579 124.617 291.024 120.211 294.656C111.681 301.742 98.6382 310.698 91.4117 314.471C86.4419 317.08 78.8628 320.041 75.5846 320.711C74.5975 320.887 71.9188 321.134 69.6628 321.24C65.1151 321.452 61.2026 320.746 56.6906 318.984C49.5348 316.163 43.225 310.31 40.1231 303.611C32.8968 287.992 36.5276 267.754 49.0766 254.074C50.9096 252.065 56.3734 247.728 58.9818 246.177C63.2474 243.638 69.7329 240.747 72.7292 240.042C73.1169 239.936 74.2449 239.654 75.1969 239.372C79.2505 238.243 81.1895 238.032 88.0634 237.856C95.536 237.715 95.1132 237.68 103.397 239.407C104.772 239.689 106.182 239.901 106.569 239.901C106.957 239.901 107.592 240.112 107.98 240.395C108.367 240.641 109.072 240.958 109.566 241.064C110.553 241.276 112.315 241.875 114.042 242.615C114.642 242.862 115.346 243.074 115.629 243.074C116.474 243.074 129.412 249.597 132.478 251.571C134.135 252.664 136.849 254.356 138.506 255.379C140.163 256.366 143.652 258.904 146.261 260.985C148.87 263.065 152.747 266.203 154.862 267.895C157.012 269.623 160.326 272.479 162.265 274.242C164.203 276.005 166.812 278.402 168.081 279.53C169.35 280.694 171.394 282.633 172.663 283.832C173.932 284.995 177.034 287.851 179.537 290.143C182.075 292.47 185.071 295.22 186.234 296.313C187.398 297.441 190.006 299.803 192.051 301.601C194.095 303.399 196.951 305.973 198.396 307.243C205.305 313.448 208.442 316.128 214.964 321.381C217.008 323.038 218.982 324.625 219.37 324.942C227.618 331.782 238.546 339.504 248.063 345.215C253.034 348.212 262.657 353.077 267.31 355.016C270.553 356.321 271.54 356.744 273.937 357.802C274.677 358.119 275.488 358.366 275.77 358.366C276.052 358.366 276.792 358.578 277.426 358.86C278.061 359.142 279.542 359.635 280.705 359.953C281.868 360.305 283.207 360.728 283.666 360.904C284.124 361.081 286.486 361.61 288.918 362.103C291.35 362.562 293.465 363.056 293.606 363.161C293.853 363.302 295.898 363.549 304.498 364.36C306.966 364.607 310.491 364.607 315.074 364.36C323.816 363.937 327.975 363.302 334.99 361.363C336.153 361.046 337.669 360.658 338.339 360.481C339.009 360.341 340.454 359.847 341.511 359.424C342.569 359.001 343.838 358.543 344.331 358.366C347.504 357.344 357.444 352.337 361.78 349.552C369.993 344.298 378.101 336.612 384.27 328.291C385.962 326.035 387.337 324.096 387.337 324.025C387.337 323.919 388.077 322.615 388.993 321.099C389.874 319.583 391.319 316.762 392.166 314.823C393.047 312.884 393.964 310.804 394.21 310.24C395.233 308.018 397.911 299.133 397.911 298.005C397.911 297.511 398.158 296.419 398.44 295.608C398.722 294.797 398.969 293.528 398.969 292.822C398.969 292.117 399.216 290.284 399.498 288.732C400.167 284.96 400.167 275.335 399.498 270.222C397.524 255.485 392.589 243.462 384.27 233.061C375.175 221.708 362.697 213.881 347.151 209.791C342.111 208.451 339.22 208.169 331.465 208.169C323.639 208.169 319.48 208.592 315.743 209.756C314.827 210.037 313.769 210.284 313.417 210.284C313.03 210.284 311.055 210.849 309.046 211.554C307.037 212.259 304.745 213.034 303.97 213.281C301.608 214.022 292.902 218.077 289.377 220.051C287.578 221.073 286.028 221.919 285.957 221.919C285.852 221.919 285.146 222.343 284.3 222.872C283.49 223.4 282.538 224 282.221 224.211C279.048 226.08 265.336 235.776 263.926 237.151C263.644 237.398 261.846 238.808 259.907 240.254C253.809 244.837 251.377 247.622 249.367 252.347C248.557 254.215 248.592 260.526 249.403 262.36C250.989 266.062 251.623 267.014 253.562 268.988C255.642 271.068 260.084 273.748 261.458 273.748C261.811 273.748 262.692 273.995 263.362 274.277C265.054 274.982 269.53 274.947 272.21 274.242C276.158 273.184 278.801 271.633 285.957 266.238C299.211 256.19 308.341 250.655 316.484 247.693C318.705 246.882 320.926 246.036 321.418 245.824C322.97 245.19 328.575 244.449 331.641 244.449C338.162 244.52 345.354 246.952 350.535 250.866C358.079 256.578 362.203 264.511 363.19 275.299C363.507 278.578 363.543 280.835 363.331 282.175C363.155 283.268 363.014 284.96 363.014 285.947C363.014 286.934 362.802 288.415 362.521 289.297C362.238 290.143 361.674 292.047 361.287 293.492C360.194 297.265 356.845 304.105 354.519 307.208C349.583 313.836 343.662 318.596 335.343 322.509C333.791 323.25 332.241 324.025 331.923 324.201C331.571 324.378 331.078 324.519 330.76 324.519C330.478 324.519 329.738 324.731 329.103 325.012C327.623 325.612 324.873 326.388 321.242 327.234C317.224 328.15 304.745 328.115 299.916 327.198C291.103 325.541 281.868 322.086 272.068 316.797C266.006 313.518 258.215 308.089 247.958 300.015C245.983 298.464 243.727 296.736 242.987 296.137C241.648 295.15 233.857 288.203 233.118 287.357C232.941 287.146 230.932 285.312 228.711 283.268C226.49 281.258 224.481 279.424 224.27 279.213C224.023 279.037 222.683 277.732 221.273 276.357C219.828 274.982 214.54 270.187 209.5 265.639C204.459 261.126 199.066 256.296 197.514 254.885C192.756 250.584 190.112 248.433 176.717 237.645C174.073 235.529 169.068 231.862 164.908 229.006C161.877 226.926 156.166 223.083 155.567 222.766C154.932 222.413 153.311 221.426 149.046 218.852C145.873 216.948 132.337 210.284 131.632 210.284C131.456 210.284 130.293 209.791 129.059 209.227C127.86 208.627 126.626 208.169 126.38 208.169C126.134 208.169 125.745 207.993 125.534 207.781C125.322 207.57 124.512 207.252 123.772 207.111C123.031 206.935 120.599 206.265 118.378 205.56C109.354 202.739 97.5452 201.082 87.6049 201.153C84.8554 201.188 82.2117 201.258 81.7182 201.329Z" fill="#E8B4B8"/>
</g>
<defs>
<clipPath id="clip0_513_464">
<rect width="400" height="365" fill="white"/>
</clipPath>
</defs>
</svg>
