<svg width="650" height="593" viewBox="0 0 650 593" fill="none" xmlns="http://www.w3.org/2000/svg">
<path d="M317.754 0.302038C304.407 1.39038 292.779 5.11367 281.151 11.9874C272.101 17.3719 259.728 29.1718 253.198 38.7378C247.871 46.5281 242.601 59.531 241.054 68.696C240.825 70.2426 240.309 72.7057 239.966 74.1377C239.049 78.1474 239.164 93.0406 240.252 98.425C242.372 109.423 243.861 114.063 247.871 122.598C251.193 129.529 253.026 132.278 259.499 140.183C266.831 149.062 277.027 157.31 286.364 161.893C295.471 166.303 303.663 168.824 313.229 170.141C331.1 172.49 348.056 169.626 364.381 161.435C370.968 158.169 375.608 154.79 384.028 147.286C386.549 144.995 397.432 131.935 397.432 131.133C397.432 130.904 398.12 129.643 399.036 128.326C399.895 127.066 401.098 124.832 401.728 123.4C402.301 121.968 403.16 120.421 403.561 119.906C403.962 119.447 404.306 118.474 404.306 117.786C404.306 117.156 404.535 116.469 404.822 116.297C405.91 115.609 409.06 103.58 410.034 96.4775C411.18 88.5153 410.263 71.7319 408.373 65.2591C405.681 56.1514 404.65 53.5164 401.098 46.4708C398.463 41.1437 395.599 36.9048 391.131 31.5204C386.091 25.4486 385.575 24.8757 382.253 22.2981C380.706 21.0379 378.071 18.8612 376.41 17.3719C370.109 11.7583 356.705 5.17095 346.452 2.65057C336.943 0.302038 326.976 -0.499901 317.754 0.302038ZM333.678 43.8359C343.989 46.2417 352.753 51.798 358.595 59.531C365.068 68.1805 367.302 74.7105 367.302 85.594C367.245 93.7852 366.214 98.1386 362.433 105.757C360.199 110.225 355.101 116.068 350.118 119.848C337.516 129.472 318.842 130.789 304.866 123.056C301.028 120.937 294.899 115.896 291.863 112.344C288.655 108.564 286.306 104.268 284.244 98.4823C282.755 94.2435 282.64 93.2697 282.64 85.594C282.64 77.9183 282.755 76.9445 284.244 72.7057C287.452 63.6552 291.29 58.0417 298.335 52.3135C308.016 44.466 321.993 41.0864 333.678 43.8359Z" fill="#E8B4B8"/>
<path d="M107.016 133.023C107.016 134.34 116.753 153.243 120.878 160.117C122.252 162.351 123.971 165.215 124.773 166.532C128.21 172.203 129.985 175.01 136.286 184.118C142.301 192.767 146.139 197.923 154.387 208.52C163.037 219.46 185.491 242.774 196.432 252.053C202.045 256.865 203.191 257.782 210.409 263.109C221.464 271.357 229.655 276.455 244.205 284.36C257.78 291.692 276.168 298.394 290.602 301.201C310.536 305.153 322.394 305.726 341.583 303.836C352.982 302.748 369.593 299.425 377.67 296.676C388.84 292.838 393.48 290.948 403.447 285.964C416.106 279.606 434.035 268.665 442.226 262.192C445.148 259.844 449.73 256.235 452.422 254.116C457.062 250.45 464.738 243.347 474.189 233.953C491.374 216.94 512.396 189.388 524.883 167.506C527.289 163.267 530.153 158.341 531.184 156.623C535.595 149.176 543.557 132.966 543.042 132.45C542.125 131.533 528.778 133.997 520.874 136.632C516.749 137.949 513.198 139.209 512.854 139.438C512.568 139.667 509.589 141.214 506.267 142.932C500.252 145.968 491.259 152.384 482.438 159.83C470.065 170.37 464.222 175.125 458.723 179.363C451.964 184.519 438.789 193.569 432.431 197.35C430.14 198.725 426.13 201.13 423.553 202.62C421.032 204.166 415.934 206.973 412.325 208.863C408.717 210.811 405.165 212.701 404.478 213.102C401.442 214.992 382.081 222.897 374.52 225.36C362.491 229.256 357.679 230.401 348.743 231.719C346.681 232.005 343.359 232.463 341.296 232.807C335.225 233.723 306.126 233.494 302.059 232.521C300.168 232.062 297.705 231.719 296.617 231.661C294.498 231.661 288.025 230.401 283.041 229.026C269.523 225.36 267.174 224.616 257.551 220.721C240.882 214.019 219.459 202.333 201.53 190.132C192.651 184.118 178.846 173.521 172.087 167.449C157.824 154.847 148.602 147.343 143.79 144.479C135.313 139.438 122.482 134.455 114.749 133.195C112.858 132.851 110.338 132.45 109.192 132.221C107.245 131.877 107.016 131.992 107.016 133.023Z" fill="#E8B4B8"/>
<path d="M132.792 327.092C131.99 327.206 129.183 327.607 126.491 327.951C114.004 329.498 102.261 332.362 91.8358 336.371C90.2892 337.002 87.5397 338.033 85.8213 338.72C76.8854 342.1 58.0971 353.04 51.2233 358.826C36.0437 371.6 25.3321 383.915 18.1147 396.918C16.2817 400.24 10.9545 411.009 9.92342 413.529C9.52245 414.446 8.89235 415.878 8.60594 416.68C6.14284 422.637 2.53412 436.786 1.27393 445.607C0.013736 454.486 -0.387234 468.348 0.414706 476.482C1.6749 489.084 5.39819 504.779 9.00691 512.626C9.57973 513.886 10.7826 516.579 11.5846 518.526C15.136 527.004 24.5302 540.236 33.1797 549C46.6408 562.69 62.6796 571.741 84.3892 577.927C94.8144 580.906 110.395 581.994 124.2 580.619C139.036 579.187 161.375 571.741 177.471 562.919C179.534 561.774 182.57 560.113 184.288 559.139C189.1 556.504 210.294 542.183 216.48 537.486C234.352 523.739 237.846 520.646 240.481 516.063C243.059 511.538 243.918 508.445 244.319 502.545C244.605 497.905 244.433 496.473 243.402 493.093C240.023 482.21 231.431 474.19 221.005 472.243C211.783 470.467 202.503 472.816 195.343 478.716C181.481 490.229 160.287 504.779 148.544 510.908C140.468 515.147 128.152 519.958 122.825 521.047C121.221 521.333 116.868 521.734 113.202 521.906C105.812 522.25 99.4542 521.104 92.1222 518.24C80.4941 513.657 70.2407 504.149 65.2 493.265C53.4573 467.89 59.3573 435.01 79.7494 412.785C82.7281 409.52 91.6067 402.474 95.8455 399.954C102.777 395.83 113.316 391.132 118.185 389.987C118.815 389.815 120.648 389.357 122.195 388.898C128.782 387.065 131.933 386.722 143.103 386.435C155.246 386.206 154.559 386.149 168.02 388.956C170.254 389.414 172.545 389.758 173.175 389.758C173.805 389.758 174.837 390.101 175.467 390.56C176.097 390.961 177.242 391.476 178.044 391.648C179.648 391.992 182.512 392.965 185.319 394.168C186.293 394.569 187.438 394.913 187.897 394.913C189.271 394.913 210.294 405.51 215.277 408.718C217.969 410.494 222.38 413.243 225.072 414.904C227.765 416.508 233.435 420.632 237.674 424.012C241.913 427.392 248.214 432.49 251.651 435.239C255.145 438.046 260.529 442.686 263.68 445.55C266.83 448.414 271.069 452.309 273.131 454.142C275.194 456.032 278.516 459.183 280.578 461.13C282.64 463.021 287.681 467.66 291.748 471.384C295.872 475.164 300.741 479.632 302.631 481.408C304.522 483.241 308.76 487.079 312.083 490C315.405 492.921 320.045 497.103 322.393 499.165C333.621 509.247 338.719 513.6 349.316 522.135C352.638 524.827 355.846 527.405 356.476 527.92C369.88 539.033 387.637 551.578 403.103 560.857C411.18 565.726 426.817 573.631 434.379 576.781C439.648 578.901 441.252 579.588 445.147 581.307C446.35 581.822 447.668 582.223 448.126 582.223C448.584 582.223 449.787 582.567 450.818 583.025C451.849 583.483 454.255 584.285 456.145 584.801C458.036 585.374 460.212 586.061 460.957 586.347C461.702 586.634 465.54 587.493 469.492 588.295C473.444 589.04 476.881 589.842 477.11 590.013C477.511 590.243 480.834 590.644 494.81 591.961C498.82 592.362 504.548 592.362 511.995 591.961C526.201 591.274 532.96 590.243 544.359 587.092C546.249 586.577 548.712 585.946 549.801 585.66C550.889 585.431 553.237 584.629 554.956 583.942C556.674 583.254 558.736 582.51 559.538 582.223C564.694 580.562 580.847 572.428 587.893 567.903C601.239 559.368 614.414 546.881 624.438 533.362C627.188 529.696 629.422 526.546 629.422 526.431C629.422 526.259 630.625 524.14 632.114 521.677C633.546 519.214 635.894 514.631 637.269 511.481C638.701 508.33 640.191 504.951 640.592 504.034C642.253 500.425 646.606 485.99 646.606 484.157C646.606 483.355 647.007 481.58 647.465 480.262C647.924 478.945 648.325 476.883 648.325 475.737C648.325 474.591 648.726 471.613 649.184 469.092C650.272 462.963 650.272 447.326 649.184 439.02C645.976 415.076 637.957 395.543 624.438 378.645C609.66 360.201 589.382 347.484 564.121 340.839C555.93 338.663 551.233 338.204 538.631 338.204C525.914 338.204 519.155 338.892 513.083 340.782C511.594 341.24 509.875 341.641 509.303 341.641C508.673 341.641 505.465 342.558 502.2 343.703C498.935 344.849 495.211 346.109 493.951 346.51C490.113 347.713 475.965 354.301 470.237 357.508C467.315 359.169 464.795 360.544 464.68 360.544C464.509 360.544 463.363 361.232 461.988 362.091C460.671 362.95 459.124 363.924 458.609 364.267C453.453 367.303 431.171 383.056 428.879 385.29C428.421 385.691 425.5 387.982 422.349 390.331C412.44 397.777 408.487 402.302 405.222 409.978C403.905 413.014 403.962 423.267 405.28 426.246C407.857 432.26 408.888 433.807 412.039 437.015C415.418 440.394 422.636 444.748 424.87 444.748C425.443 444.748 426.875 445.149 427.963 445.607C430.713 446.753 437.987 446.695 442.341 445.55C448.756 443.831 453.052 441.311 464.68 432.547C486.218 416.222 501.054 407.229 514.286 402.417C517.895 401.099 521.504 399.725 522.305 399.381C524.826 398.35 533.934 397.147 538.917 397.147C549.514 397.262 561.2 401.214 569.62 407.572C581.878 416.852 588.58 429.74 590.184 447.268C590.699 452.595 590.757 456.261 590.413 458.438C590.127 460.214 589.898 462.963 589.898 464.567C589.898 466.171 589.554 468.577 589.096 470.009C588.637 471.384 587.721 474.477 587.091 476.825C585.315 482.955 579.873 494.067 576.093 499.108C568.073 509.877 558.45 517.61 544.932 523.968C542.411 525.171 539.891 526.431 539.375 526.717C538.803 527.004 538.001 527.233 537.485 527.233C537.027 527.233 535.824 527.577 534.793 528.035C532.387 529.009 527.919 530.269 522.019 531.644C515.489 533.133 495.211 533.076 487.364 531.586C473.043 528.894 458.036 523.281 442.111 514.688C432.259 509.361 419.6 500.54 402.931 487.422C399.723 484.902 396.057 482.095 394.854 481.122C392.678 479.518 380.018 468.233 378.816 466.858C378.529 466.515 375.264 463.536 371.655 460.214C368.047 456.949 364.782 453.97 364.438 453.626C364.037 453.34 361.86 451.221 359.569 448.987C357.22 446.753 348.628 438.962 340.437 431.573C332.246 424.241 323.482 416.394 320.961 414.102C313.228 407.114 308.932 403.62 287.165 386.092C282.869 382.655 274.735 376.698 267.976 372.058C263.05 368.678 253.77 362.434 252.797 361.919C251.765 361.346 249.13 359.742 242.199 355.561C237.044 352.468 215.048 341.641 213.902 341.641C213.616 341.641 211.726 340.839 209.721 339.923C207.773 338.949 205.768 338.204 205.368 338.204C204.967 338.204 204.336 337.918 203.993 337.574C203.649 337.231 202.332 336.715 201.129 336.486C199.926 336.2 195.973 335.111 192.365 333.966C177.701 329.383 158.511 326.691 142.358 326.805C137.89 326.863 133.594 326.977 132.792 327.092Z" fill="#E8B4B8"/>
</svg>
