<svg width="100" height="100" viewBox="0 0 100 100" fill="none" xmlns="http://www.w3.org/2000/svg">
<path d="M45.8333 66.666C45.8333 68.9672 47.6988 70.8327 50 70.8327C52.3012 70.8327 54.1667 68.9672 54.1667 66.666C54.1667 64.3648 52.3012 62.4993 50 62.4993C47.6988 62.4993 45.8333 64.3648 45.8333 66.666Z" fill="black" fill-opacity="0.5"/>
<path fill-rule="evenodd" clip-rule="evenodd" d="M50 17.7077C43.6717 17.7077 38.5417 22.8378 38.5417 29.166C38.5417 35.4943 43.6717 40.6243 50 40.6243C56.3283 40.6243 61.4583 35.4943 61.4583 29.166C61.4583 22.8378 56.3283 17.7077 50 17.7077ZM44.7917 29.166C44.7917 26.2895 47.1235 23.9577 50 23.9577C52.8765 23.9577 55.2083 26.2895 55.2083 29.166C55.2083 32.0425 52.8765 34.3743 50 34.3743C47.1235 34.3743 44.7917 32.0425 44.7917 29.166Z" fill="black" fill-opacity="0.5"/>
<path fill-rule="evenodd" clip-rule="evenodd" d="M50 51.041C41.3706 51.041 34.375 58.0366 34.375 66.666C34.375 75.2955 41.3706 82.291 50 82.291C58.6294 82.291 65.625 75.2955 65.625 66.666C65.625 58.0366 58.6294 51.041 50 51.041ZM40.625 66.666C40.625 61.4883 44.8223 57.291 50 57.291C55.1777 57.291 59.375 61.4883 59.375 66.666C59.375 71.8437 55.1777 76.041 50 76.041C44.8223 76.041 40.625 71.8437 40.625 66.666Z" fill="black" fill-opacity="0.5"/>
<path fill-rule="evenodd" clip-rule="evenodd" d="M68.598 1.55655C63.8391 1.04096 57.8408 1.04098 50.1885 1.04102H49.8115C42.1592 1.04098 36.1609 1.04096 31.402 1.55655C26.5456 2.08271 22.6107 3.1757 19.251 5.61665C17.217 7.09439 15.4284 8.88306 13.9506 10.917C11.5097 14.2767 10.4167 18.2116 9.89053 23.068C9.37494 27.8269 9.37497 33.8252 9.375 41.4775V58.5212C9.37497 66.1735 9.37494 72.1718 9.89053 76.9307C10.4167 81.7871 11.5097 85.722 13.9506 89.0817C15.4284 91.1156 17.217 92.9043 19.251 94.382C22.6107 96.823 26.5456 97.916 31.402 98.4421C36.1608 98.9577 42.159 98.9577 49.8111 98.9577H50.1886C57.8407 98.9577 63.8392 98.9577 68.598 98.4421C73.4544 97.916 77.3893 96.823 80.749 94.382C82.783 92.9043 84.5716 91.1156 86.0494 89.0817C88.4903 85.722 89.5833 81.7871 90.1095 76.9307C90.6251 72.1719 90.625 66.1737 90.625 58.5216V41.4774C90.625 33.8253 90.6251 27.8268 90.1095 23.068C89.5833 18.2116 88.4903 14.2767 86.0494 10.917C84.5716 8.88306 82.783 7.09439 80.749 5.61665C77.3893 3.1757 73.4544 2.08271 68.598 1.55655ZM22.9246 10.673C25.0413 9.13515 27.7506 8.23873 32.0752 7.77019C36.4583 7.29531 42.1185 7.29102 50 7.29102C57.8815 7.29102 63.5417 7.29531 67.9248 7.77019C72.2494 8.23873 74.9587 9.13515 77.0754 10.673C78.5787 11.7653 79.9008 13.0873 80.993 14.5907C82.5309 16.7073 83.4273 19.4166 83.8958 23.7412C84.3707 28.1243 84.375 33.7845 84.375 41.666V58.3327C84.375 66.2142 84.3707 71.8744 83.8958 76.2575C83.4273 80.5821 82.5309 83.2914 80.993 85.408C79.9008 86.9114 78.5787 88.2334 77.0754 89.3257C74.9587 90.8635 72.2494 91.76 67.9248 92.2285C63.5417 92.7034 57.8815 92.7077 50 92.7077C42.1185 92.7077 36.4583 92.7034 32.0752 92.2285C27.7506 91.76 25.0413 90.8635 22.9246 89.3257C21.4213 88.2335 20.0992 86.9114 19.007 85.408C17.4691 83.2914 16.5727 80.5821 16.1042 76.2575C15.6293 71.8744 15.625 66.2142 15.625 58.3327V41.666C15.625 33.7845 15.6293 28.1243 16.1042 23.7412C16.5727 19.4166 17.4691 16.7073 19.007 14.5907C20.0992 13.0873 21.4213 11.7653 22.9246 10.673Z" fill="black" fill-opacity="0.5"/>
</svg>
