<svg width="100" height="100" viewBox="0 0 100 100" fill="none" xmlns="http://www.w3.org/2000/svg">
<path d="M11 16C11 16.5523 11.4477 17 12 17C12.5523 17 13 16.5523 13 16C13 15.4477 12.5523 15 12 15C11.4477 15 11 15.4477 11 16Z" fill="black" fill-opacity="0.5"/>
<path d="M21.0878 91.8539L21.5286 91.2471L21.0878 91.8539ZM16.4788 87.2449L17.0856 86.804L16.4788 87.2449ZM83.5212 87.2449L82.9144 86.804L83.5212 87.2449ZM78.9122 91.8539L78.4714 91.2471L78.9122 91.8539ZM78.9122 8.14483L78.4714 8.75159L78.9122 8.14483ZM83.5212 12.7538L82.9144 13.1947L83.5212 12.7538ZM21.0878 8.14483L21.5286 8.75159L21.0878 8.14483ZM16.4788 12.7538L17.0856 13.1947L16.4788 12.7538ZM87.5 41.666H86.75V58.3327H87.5H88.25V41.666H87.5ZM12.5 58.3327H13.25V41.666H12.5H11.75V58.3327H12.5ZM50 95.8327V95.0827C42.1714 95.0827 36.3601 95.0816 31.8194 94.5897C27.2927 94.0993 24.1177 93.1281 21.5286 91.2471L21.0878 91.8539L20.647 92.4606C23.5343 94.5584 27.0035 95.5767 31.6578 96.081C36.2981 96.5837 42.2048 96.5827 50 96.5827V95.8327ZM12.5 58.3327H11.75C11.75 66.1279 11.749 72.0346 12.2517 76.6749C12.756 81.3292 13.7743 84.7984 15.872 87.6857L16.4788 87.2449L17.0856 86.804C15.2045 84.215 14.2334 81.04 13.743 76.5133C13.251 71.9726 13.25 66.1613 13.25 58.3327H12.5ZM21.0878 91.8539L21.5286 91.2471C19.8237 90.0084 18.3243 88.509 17.0856 86.804L16.4788 87.2449L15.872 87.6857C17.2033 89.518 18.8147 91.1294 20.647 92.4606L21.0878 91.8539ZM87.5 58.3327H86.75C86.75 66.1613 86.749 71.9726 86.257 76.5133C85.7666 81.04 84.7955 84.215 82.9144 86.804L83.5212 87.2449L84.128 87.6857C86.2257 84.7984 87.244 81.3292 87.7483 76.6749C88.251 72.0346 88.25 66.1279 88.25 58.3327H87.5ZM50 95.8327V96.5827C57.7952 96.5827 63.7019 96.5837 68.3422 96.081C72.9965 95.5767 76.4657 94.5584 79.353 92.4606L78.9122 91.8539L78.4714 91.2471C75.8823 93.1281 72.7073 94.0993 68.1806 94.5897C63.6399 95.0816 57.8286 95.0827 50 95.0827V95.8327ZM83.5212 87.2449L82.9144 86.804C81.6757 88.509 80.1763 90.0084 78.4714 91.2471L78.9122 91.8539L79.353 92.4606C81.1853 91.1294 82.7967 89.518 84.128 87.6857L83.5212 87.2449ZM50 4.16602V4.91602C57.8286 4.91602 63.6399 4.91705 68.1806 5.409C72.7073 5.89944 75.8823 6.87056 78.4714 8.75159L78.9122 8.14483L79.353 7.53806C76.4657 5.44029 72.9965 4.422 68.3422 3.91773C63.7019 3.41499 57.7952 3.41602 50 3.41602V4.16602ZM87.5 41.666H88.25C88.25 33.8708 88.251 27.9641 87.7483 23.3238C87.244 18.6695 86.2257 15.2003 84.128 12.313L83.5212 12.7538L82.9144 13.1947C84.7955 15.7837 85.7666 18.9587 86.257 23.4854C86.749 28.0261 86.75 33.8374 86.75 41.666H87.5ZM78.9122 8.14483L78.4714 8.75159C80.1763 9.99032 81.6757 11.4897 82.9144 13.1947L83.5212 12.7538L84.128 12.313C82.7967 10.4807 81.1853 8.86932 79.353 7.53806L78.9122 8.14483ZM50 4.16602V3.41602C42.2048 3.41602 36.2981 3.41499 31.6578 3.91773C27.0035 4.422 23.5343 5.44029 20.647 7.53806L21.0878 8.14483L21.5286 8.75159C24.1177 6.87056 27.2927 5.89944 31.8194 5.409C36.3601 4.91705 42.1714 4.91602 50 4.91602V4.16602ZM12.5 41.666H13.25C13.25 33.8374 13.251 28.0261 13.743 23.4854C14.2334 18.9587 15.2045 15.7837 17.0856 13.1947L16.4788 12.7538L15.872 12.313C13.7743 15.2003 12.756 18.6695 12.2517 23.3238C11.749 27.9641 11.75 33.8708 11.75 41.666H12.5ZM21.0878 8.14483L20.647 7.53806C18.8147 8.86932 17.2033 10.4807 15.872 12.313L16.4788 12.7538L17.0856 13.1947C18.3243 11.4897 19.8237 9.99032 21.5286 8.75159L21.0878 8.14483ZM37.5 66.666H36.75C36.75 73.9838 42.6822 79.916 50 79.916V79.166V78.416C43.5107 78.416 38.25 73.1554 38.25 66.666H37.5ZM50 79.166V79.916C57.3178 79.916 63.25 73.9838 63.25 66.666H62.5H61.75C61.75 73.1554 56.4893 78.416 50 78.416V79.166ZM62.5 66.666H63.25C63.25 59.3482 57.3178 53.416 50 53.416V54.166V54.916C56.4893 54.916 61.75 60.1767 61.75 66.666H62.5ZM50 54.166V53.416C42.6822 53.416 36.75 59.3482 36.75 66.666H37.5H38.25C38.25 60.1767 43.5107 54.916 50 54.916V54.166ZM41.6667 29.166H40.9167C40.9167 34.1826 44.9834 38.2493 50 38.2493V37.4993V36.7493C45.8118 36.7493 42.4167 33.3542 42.4167 29.166H41.6667ZM50 37.4993V38.2493C55.0166 38.2493 59.0833 34.1826 59.0833 29.166H58.3333H57.5833C57.5833 33.3542 54.1882 36.7493 50 36.7493V37.4993ZM58.3333 29.166H59.0833C59.0833 24.1494 55.0166 20.0827 50 20.0827V20.8327V21.5827C54.1882 21.5827 57.5833 24.9779 57.5833 29.166H58.3333ZM50 20.8327V20.0827C44.9834 20.0827 40.9167 24.1494 40.9167 29.166H41.6667H42.4167C42.4167 24.9779 45.8118 21.5827 50 21.5827V20.8327Z" fill="black" fill-opacity="0.5"/>
</svg>
