<svg width="100" height="100" viewBox="0 0 100 100" fill="none" xmlns="http://www.w3.org/2000/svg">
<path fill-rule="evenodd" clip-rule="evenodd" d="M48.9708 63.4792C47.7208 63.9958 46.2917 64.4833 44.9583 64.4833C43.925 64.4833 42.9542 64.1917 42.1625 63.4C41.5833 62.8208 39.8042 61.0458 39.8542 49.3208C39.9 37.6583 41.6042 35.9583 42.1625 35.3958C44.1292 33.4333 47.3833 34.7708 48.775 35.35C52.2083 36.7708 65.65 44.175 65.65 49.4C65.65 54.7083 51.9167 62.2583 48.9708 63.4792ZM50 9.375C20.0083 9.375 9.375 20.0083 9.375 50C9.375 79.9917 20.0083 90.625 50 90.625C79.9958 90.625 90.625 79.9917 90.625 50C90.625 20.0083 79.9958 9.375 50 9.375Z" fill="#D49499"/>
</svg>
