<svg width="100" height="100" viewBox="0 0 100 100" fill="none" xmlns="http://www.w3.org/2000/svg">
<path d="M50 23.9577C47.1235 23.9577 44.7917 26.2895 44.7917 29.166C44.7917 32.0425 47.1235 34.3743 50 34.3743C52.8765 34.3743 55.2083 32.0425 55.2083 29.166C55.2083 26.2895 52.8765 23.9577 50 23.9577Z" fill="#D49499"/>
<path fill-rule="evenodd" clip-rule="evenodd" d="M50 57.291C44.8223 57.291 40.625 61.4883 40.625 66.666C40.625 71.8437 44.8223 76.041 50 76.041C55.1777 76.041 59.375 71.8437 59.375 66.666C59.375 61.4883 55.1777 57.291 50 57.291ZM50 70.8327C47.6988 70.8327 45.8333 68.9672 45.8333 66.666C45.8333 64.3648 47.6988 62.4993 50 62.4993C52.3012 62.4993 54.1667 64.3648 54.1667 66.666C54.1667 68.9672 52.3012 70.8327 50 70.8327Z" fill="#D49499"/>
<path fill-rule="evenodd" clip-rule="evenodd" d="M49.8115 1.04102C42.1592 1.04098 36.1609 1.04096 31.402 1.55655C26.5456 2.08271 22.6107 3.1757 19.251 5.61665C17.217 7.09439 15.4284 8.88306 13.9506 10.917C11.5097 14.2767 10.4167 18.2116 9.89053 23.068C9.37494 27.8269 9.37497 33.8252 9.375 41.4775V58.5212C9.37497 66.1735 9.37494 72.1718 9.89053 76.9307C10.4167 81.7871 11.5097 85.722 13.9506 89.0817C15.4284 91.1156 17.217 92.9043 19.251 94.382C22.6107 96.823 26.5456 97.916 31.402 98.4421C36.1608 98.9577 42.159 98.9577 49.8111 98.9577H50.1886C57.8407 98.9577 63.8392 98.9577 68.598 98.4421C73.4544 97.916 77.3893 96.823 80.749 94.382C82.783 92.9043 84.5716 91.1156 86.0494 89.0817C88.4903 85.722 89.5833 81.7871 90.1095 76.9307C90.6251 72.1719 90.625 66.1737 90.625 58.5216V41.4774C90.625 33.8253 90.6251 27.8268 90.1095 23.068C89.5833 18.2116 88.4903 14.2767 86.0494 10.917C84.5716 8.88306 82.783 7.09439 80.749 5.61665C77.3893 3.1757 73.4544 2.08271 68.598 1.55655C63.8391 1.04096 57.8408 1.04098 50.1885 1.04102H49.8115ZM38.5417 29.166C38.5417 22.8378 43.6717 17.7077 50 17.7077C56.3283 17.7077 61.4583 22.8378 61.4583 29.166C61.4583 35.4943 56.3283 40.6243 50 40.6243C43.6717 40.6243 38.5417 35.4943 38.5417 29.166ZM34.375 66.666C34.375 58.0366 41.3706 51.041 50 51.041C58.6294 51.041 65.625 58.0366 65.625 66.666C65.625 75.2955 58.6294 82.291 50 82.291C41.3706 82.291 34.375 75.2955 34.375 66.666Z" fill="#D49499"/>
</svg>
