<svg width="100" height="100" viewBox="0 0 100 100" fill="none" xmlns="http://www.w3.org/2000/svg">
<path fill-rule="evenodd" clip-rule="evenodd" d="M40.7532 65.2613C41.649 66.153 42.7532 66.4821 43.9198 66.4821C45.4282 66.4821 47.049 65.9363 48.4657 65.3488C51.799 63.9655 67.3532 55.4113 67.3532 49.403C67.3532 43.4863 52.1323 35.0946 48.2407 33.4905C46.6657 32.8321 42.9823 31.3155 40.7532 33.5405C40.1173 34.1805 38.1906 36.1198 38.1365 49.3113C38.0823 62.5905 40.0942 64.6023 40.7532 65.2613ZM45.0698 59.9988C44.1532 55.6905 44.1657 43.4821 45.0823 38.9113C49.2407 40.3488 58.7323 46.6071 60.8615 49.4155C58.724 52.3196 49.1115 58.7071 45.0698 59.9988Z" fill="black" fill-opacity="0.5"/>
<path fill-rule="evenodd" clip-rule="evenodd" d="M8.33398 50.0007C8.33398 80.7632 19.2382 91.6673 50.0007 91.6673C80.7632 91.6673 91.6673 80.7632 91.6673 50.0007C91.6673 19.2382 80.7632 8.33398 50.0007 8.33398C19.2382 8.33398 8.33398 19.2382 8.33398 50.0007ZM14.584 50.0007C14.584 22.859 22.859 14.584 50.0007 14.584C77.1423 14.584 85.4173 22.859 85.4173 50.0007C85.4173 77.1423 77.1423 85.4173 50.0007 85.4173C22.859 85.4173 14.584 77.1423 14.584 50.0007Z" fill="black" fill-opacity="0.5"/>
</svg>
