<svg width="100" height="100" viewBox="0 0 100 100" fill="none" xmlns="http://www.w3.org/2000/svg">
<path fill-rule="evenodd" clip-rule="evenodd" d="M66.4614 55.8992C64.1614 55.8992 62.2739 54.0367 62.2739 51.7326C62.2739 49.4284 64.1198 47.5659 66.4239 47.5659H66.4614C68.7614 47.5659 70.6281 49.4284 70.6281 51.7326C70.6281 54.0367 68.7614 55.8992 66.4614 55.8992ZM49.7573 55.8992C47.4531 55.8992 45.5698 54.0367 45.5698 51.7326C45.5698 49.4284 47.4198 47.5659 49.7198 47.5659H49.7573C52.0573 47.5659 53.9239 49.4284 53.9239 51.7326C53.9239 54.0367 52.0573 55.8992 49.7573 55.8992ZM33.0531 55.8992C30.7531 55.8992 28.8698 54.0367 28.8698 51.7326C28.8698 49.4284 30.7114 47.5659 33.0156 47.5659H33.0531C35.3531 47.5659 37.2198 49.4284 37.2198 51.7326C37.2198 54.0367 35.3531 55.8992 33.0531 55.8992ZM80.9448 19.0659C72.6906 10.8117 61.7031 6.26172 50.0114 6.26172C38.3198 6.26172 27.3323 10.8117 19.0781 19.0659C6.1531 31.9951 2.6281 51.8367 10.2323 68.2284C10.3698 68.9034 9.99893 71.6492 9.73226 73.6575C8.72393 81.1825 8.20726 86.7076 10.7614 89.2659C13.3114 91.82 18.8323 91.3034 26.3573 90.2909C28.3656 90.0242 31.1448 89.6659 31.5781 89.7117C37.4364 92.4242 43.6989 93.7367 49.9156 93.7367C61.3239 93.7367 72.5823 89.3117 80.9448 80.945C97.9989 63.8825 98.0031 36.1242 80.9448 19.0659Z" fill="#D49499"/>
</svg>
