<svg width="100" height="100" viewBox="0 0 100 100" fill="none" xmlns="http://www.w3.org/2000/svg">
<g opacity="0.5">
<path d="M29.925 11.4375C19.5938 11.4375 11.4375 19.5937 11.4375 29.6531V57.1125V68.5312C19.8656 61.1906 30.7406 57.1125 42.1594 57.1125H53.0344C63.0937 57.1125 71.5219 48.9563 71.5219 38.8969V29.6531C71.25 19.5937 63.0938 11.4375 52.7625 11.4375H29.925Z" stroke="black" stroke-width="2" stroke-miterlimit="10" stroke-linecap="round" stroke-linejoin="round"/>
<path d="M65.8436 51.8621C61.1207 61.8049 27.75 53.1748 27.75 63.2342V76.1444V87.5631C36.1781 80.2225 47.0531 76.1444 58.4719 76.1444H69.3469C79.4062 76.1444 87.8344 67.9881 87.8344 57.9288V48.685C87.5625 38.6256 82.2648 30.9199 71.9336 30.9199L70.6286 43.4728L65.8436 51.8621Z" stroke="black" stroke-width="2" stroke-miterlimit="10" stroke-linecap="round" stroke-linejoin="round"/>
</g>
</svg>
