<svg width="100" height="100" viewBox="0 0 100 100" fill="none" xmlns="http://www.w3.org/2000/svg">
<path fill-rule="evenodd" clip-rule="evenodd" d="M62.248 51.7214C62.248 49.4202 64.1135 47.5547 66.4147 47.5547H66.4522C68.7534 47.5547 70.6189 49.4202 70.6189 51.7214C70.6189 54.0225 68.7534 55.888 66.4522 55.888H66.4147C64.1135 55.888 62.248 54.0225 62.248 51.7214Z" fill="black" fill-opacity="0.5"/>
<path fill-rule="evenodd" clip-rule="evenodd" d="M45.543 51.7214C45.543 49.4202 47.4084 47.5547 49.7096 47.5547H49.7471C52.0483 47.5547 53.9138 49.4202 53.9138 51.7214C53.9138 54.0225 52.0483 55.888 49.7471 55.888H49.7096C47.4084 55.888 45.543 54.0225 45.543 51.7214Z" fill="black" fill-opacity="0.5"/>
<path fill-rule="evenodd" clip-rule="evenodd" d="M28.8398 51.7214C28.8398 49.4202 30.7053 47.5547 33.0065 47.5547H33.044C35.3452 47.5547 37.2107 49.4202 37.2107 51.7214C37.2107 54.0225 35.3452 55.888 33.044 55.888H33.0065C30.7053 55.888 28.8398 54.0225 28.8398 51.7214Z" fill="black" fill-opacity="0.5"/>
<path fill-rule="evenodd" clip-rule="evenodd" d="M77.2526 22.7395C62.2178 7.69881 37.7875 7.69881 22.7527 22.7395L22.7521 22.7402C10.9776 34.5124 8.42052 51.9628 15.0291 66.2439C15.0513 66.2919 15.0723 66.3404 15.092 66.3894C15.476 67.3435 15.4674 68.4249 15.4501 69.0364C15.4284 69.8043 15.3435 70.689 15.2386 71.589C15.1395 72.4399 15.0136 73.3774 14.8856 74.3303L14.859 74.5284C14.7204 75.561 14.5793 76.6211 14.4561 77.6827C14.2062 79.8358 14.0493 81.8465 14.1191 83.4549C14.1539 84.2564 14.2416 84.8503 14.3534 85.2574C14.3911 85.3945 14.4257 85.4888 14.4511 85.5497C14.512 85.5751 14.6064 85.6096 14.7436 85.6473C15.1508 85.7591 15.7448 85.8466 16.5463 85.8813C18.1548 85.951 20.1654 85.7941 22.3182 85.5445C23.3797 85.4214 24.4397 85.2804 25.4722 85.142L25.669 85.1156C26.6223 84.9877 27.5601 84.8618 28.4113 84.7628C29.3112 84.6581 30.1958 84.5733 30.9636 84.5518C31.5751 84.5346 32.6563 84.5261 33.6102 84.9102C33.6589 84.9298 33.7071 84.9506 33.7548 84.9727C48.0388 91.5787 65.4824 89.0247 77.2525 77.2492L77.2529 77.2488C92.2898 62.2099 92.3196 37.8047 77.2532 22.7401L77.2526 22.7395ZM81.6723 18.3204C64.1965 0.838326 35.808 0.838517 18.3325 18.321C4.73229 31.919 1.72706 52.0207 9.20349 68.5334C9.20572 68.6065 9.20675 68.7133 9.20261 68.8598C9.18884 69.3469 9.12995 70.013 9.0306 70.8658C8.93809 71.6599 8.81919 72.5453 8.68879 73.5164L8.66455 73.6969C8.52626 74.7272 8.37814 75.8384 8.24772 76.9623C7.99036 79.1804 7.7827 81.5984 7.87502 83.7259C7.9213 84.7923 8.04641 85.8931 8.32694 86.9138C8.60107 87.9111 9.08603 89.0627 10.0125 89.9893L10.0139 89.9907C10.9406 90.9164 12.0921 91.4006 13.089 91.6743C14.1093 91.9544 15.2098 92.0793 16.2759 92.1255C18.4028 92.2176 20.8204 92.01 23.0381 91.7529C24.1618 91.6226 25.2728 91.4747 26.3029 91.3365L26.4817 91.3125C27.4534 91.1822 28.3392 91.0634 29.1336 90.971C29.9862 90.8717 30.6522 90.813 31.1392 90.7993C31.2859 90.7952 31.3929 90.7962 31.4659 90.7985C47.98 98.2716 68.0756 95.2709 81.6726 81.6679C99.1463 64.1919 99.1834 35.8294 81.6723 18.3204Z" fill="black" fill-opacity="0.5"/>
</svg>
