<svg width="100" height="100" viewBox="0 0 100 100" fill="none" xmlns="http://www.w3.org/2000/svg">
<path d="M75.3688 26.88C74.5017 15.28 64.9635 6 53.113 6H28.5449C16.1163 6 6 16.15 6 28.33V69.8C6 70.96 6.57807 71.83 7.73422 72.41C8.02326 72.7 8.60133 72.7 8.89037 72.7C9.46844 72.7 10.3355 72.41 10.9136 72.12C14.6711 68.93 19.0066 66.32 23.3422 64.29V90.1C23.3422 91.26 23.9203 92.13 25.0764 92.71C25.3654 93 25.9435 93 26.2326 93C26.8106 93 27.6777 92.71 28.2558 92.42C36.6379 84.88 47.6213 80.82 58.8937 80.82H70.4551C82.8837 80.82 93 70.67 93 58.49V48.63C92.711 38.19 85.196 29.2 75.3688 26.88ZM86.9302 58.49C86.9302 67.77 79.4153 75.02 70.1661 75.02H58.6047C48.1993 75.02 37.794 78.21 29.1229 84.3V62.26C33.1694 61.1 37.2159 60.52 41.5515 60.52H53.113C65.5415 60.52 75.6578 50.37 75.6578 38.19V32.97C82.3056 35 87.2193 41.38 87.2193 48.63V58.49H86.9302Z" fill="#D49499"/>
</svg>
