<svg width="100" height="100" viewBox="0 0 100 100" fill="none" xmlns="http://www.w3.org/2000/svg">
<path fill-rule="evenodd" clip-rule="evenodd" d="M25.9105 57.5533C16.7939 57.5533 9.37305 64.97 9.37305 74.0908C9.37305 83.2075 16.7939 90.6242 25.9105 90.6242C35.0272 90.6242 42.448 83.2075 42.448 74.0908C42.448 64.97 35.0272 57.5533 25.9105 57.5533Z" fill="#D49499"/>
<path fill-rule="evenodd" clip-rule="evenodd" d="M74.0876 57.5533C64.971 57.5533 57.5501 64.97 57.5501 74.0908C57.5501 83.2075 64.971 90.6242 74.0876 90.6242C83.2043 90.6242 90.6251 83.2075 90.6251 74.0908C90.6251 64.97 83.2043 57.5533 74.0876 57.5533Z" fill="#D49499"/>
<path fill-rule="evenodd" clip-rule="evenodd" d="M66.5355 25.9125C66.5355 16.7958 59.1188 9.375 49.998 9.375C40.8813 9.375 33.4646 16.7958 33.4646 25.9125C33.4646 35.0292 40.8813 42.45 49.998 42.45C59.1188 42.45 66.5355 35.0292 66.5355 25.9125Z" fill="#D49499"/>
</svg>
