<svg width="100" height="100" viewBox="0 0 100 100" fill="none" xmlns="http://www.w3.org/2000/svg">
<path fill-rule="evenodd" clip-rule="evenodd" d="M25.9121 59.6348C33.8934 59.6348 40.3652 66.1051 40.3652 74.0879C40.3652 82.0691 33.8934 88.541 25.9121 88.541C17.9293 88.541 11.459 82.0691 11.459 74.0879C11.459 66.1066 17.9309 59.6348 25.9121 59.6348Z" stroke="black" stroke-opacity="0.5" stroke-width="1.5" stroke-linecap="round" stroke-linejoin="round"/>
<path fill-rule="evenodd" clip-rule="evenodd" d="M74.0879 59.6348C82.0691 59.6348 88.541 66.1051 88.541 74.0879C88.541 82.0691 82.0691 88.541 74.0879 88.541C66.1051 88.541 59.6348 82.0691 59.6348 74.0879C59.6348 66.1066 66.1066 59.6348 74.0879 59.6348Z" stroke="black" stroke-opacity="0.5" stroke-width="1.5" stroke-linecap="round" stroke-linejoin="round"/>
<path fill-rule="evenodd" clip-rule="evenodd" d="M50 11.459C57.9812 11.459 64.4531 17.9293 64.4531 25.9121C64.4531 33.8934 57.9812 40.3652 50 40.3652C42.0172 40.3652 35.5469 33.8934 35.5469 25.9121C35.5469 17.9309 42.0188 11.459 50 11.459Z" stroke="black" stroke-opacity="0.5" stroke-width="1.5" stroke-linecap="round" stroke-linejoin="round"/>
</svg>
