<svg width="100" height="100" viewBox="0 0 100 100" fill="none" xmlns="http://www.w3.org/2000/svg">
<path fill-rule="evenodd" clip-rule="evenodd" d="M25.9121 62.7598C19.6567 62.7598 14.584 67.8325 14.584 74.0879C14.584 80.3435 19.6554 85.416 25.9121 85.416C32.1675 85.416 37.2402 80.3433 37.2402 74.0879C37.2402 67.8312 32.1677 62.7598 25.9121 62.7598ZM8.33398 74.0879C8.33398 64.3808 16.205 56.5098 25.9121 56.5098C35.619 56.5098 43.4902 64.379 43.4902 74.0879C43.4902 83.795 35.6192 91.666 25.9121 91.666C16.2032 91.666 8.33398 83.7948 8.33398 74.0879Z" fill="black" fill-opacity="0.5"/>
<path fill-rule="evenodd" clip-rule="evenodd" d="M74.0879 62.7598C67.8325 62.7598 62.7598 67.8325 62.7598 74.0879C62.7598 80.3435 67.8312 85.416 74.0879 85.416C80.3433 85.416 85.416 80.3433 85.416 74.0879C85.416 67.8312 80.3435 62.7598 74.0879 62.7598ZM56.5098 74.0879C56.5098 64.3808 64.3808 56.5098 74.0879 56.5098C83.7948 56.5098 91.666 64.379 91.666 74.0879C91.666 83.795 83.795 91.666 74.0879 91.666C64.379 91.666 56.5098 83.7948 56.5098 74.0879Z" fill="black" fill-opacity="0.5"/>
<path fill-rule="evenodd" clip-rule="evenodd" d="M50 14.584C43.7446 14.584 38.6719 19.6567 38.6719 25.9121C38.6719 32.1677 43.7433 37.2402 50 37.2402C56.2554 37.2402 61.3281 32.1675 61.3281 25.9121C61.3281 19.6554 56.2556 14.584 50 14.584ZM32.4219 25.9121C32.4219 16.205 40.2929 8.33398 50 8.33398C59.7069 8.33398 67.5781 16.2032 67.5781 25.9121C67.5781 35.6192 59.7071 43.4902 50 43.4902C40.2911 43.4902 32.4219 35.619 32.4219 25.9121Z" fill="black" fill-opacity="0.5"/>
</svg>
