<svg width="100" height="100" viewBox="0 0 100 100" fill="none" xmlns="http://www.w3.org/2000/svg">
<path fill-rule="evenodd" clip-rule="evenodd" d="M34.7031 67.2305C34.7031 65.5046 36.1022 64.1055 37.8281 64.1055H62.0573C63.7832 64.1055 65.1823 65.5046 65.1823 67.2305C65.1823 68.9564 63.7832 70.3555 62.0573 70.3555H37.8281C36.1022 70.3555 34.7031 68.9564 34.7031 67.2305Z" fill="black" fill-opacity="0.5"/>
<path fill-rule="evenodd" clip-rule="evenodd" d="M28.3744 24.9075C26.6555 26.4998 25.1121 27.8683 23.7401 29.0775C23.5464 29.2482 23.3568 29.4152 23.171 29.5788C22.0089 30.6021 20.9969 31.4933 20.0878 32.3324C17.9823 34.276 16.6524 35.7435 15.7119 37.3847C13.8264 40.6747 13.125 45.288 13.125 57.1382C13.125 65.7051 13.6378 71.8553 14.7965 76.3144C15.934 80.6917 17.6296 83.2001 19.8759 84.8125C22.2219 86.4964 25.571 87.4994 30.6144 88.0193C35.6527 88.5386 41.9376 88.5423 49.9417 88.5423C57.9458 88.5423 64.2306 88.5386 69.269 88.0193C74.3123 87.4994 77.6615 86.4964 80.0074 84.8125C82.2537 83.2001 83.9494 80.6917 85.0869 76.3144C86.2456 71.8553 86.7583 65.7051 86.7583 57.1382C86.7583 45.2877 86.0579 40.6742 84.1733 37.3841C83.2332 35.7431 81.9038 34.2757 79.7988 32.3323C78.8891 31.4923 77.8762 30.6003 76.7128 29.5757C76.5281 29.4131 76.3396 29.2471 76.1471 29.0774C74.7753 27.8682 73.2319 26.4996 71.5129 24.9074C70.4953 24.0857 69.4412 23.1966 68.3488 22.2752C65.969 20.2679 63.4072 18.1071 60.6433 16.1546C56.5394 13.2555 52.8229 11.459 49.825 11.459C46.837 11.459 43.171 13.2557 39.1214 16.1591C36.4785 18.0539 34.0609 20.1131 31.7893 22.048C30.6157 23.0477 29.481 24.0141 28.3744 24.9075ZM35.4797 11.0797C39.6477 8.09142 44.7172 5.20898 49.825 5.20898C54.9188 5.20898 60.0293 8.06867 64.2494 11.0498C67.2327 13.1573 70.1839 15.6444 72.6543 17.7263C73.7081 18.6144 74.6744 19.4287 75.5184 20.1085C75.575 20.154 75.63 20.2016 75.6833 20.251C77.3751 21.8199 78.8974 23.1703 80.2799 24.3889C80.4674 24.5542 80.653 24.7175 80.8365 24.8791C81.9943 25.8987 83.0702 26.8461 84.0385 27.7401C86.2855 29.8147 88.1767 31.7989 89.5965 34.2776C92.4317 39.2271 93.0083 45.5261 93.0083 57.1382C93.0083 65.8358 92.5008 72.634 91.136 77.8863C89.7499 83.2203 87.4187 87.1861 83.652 89.8899C79.9849 92.5221 75.3348 93.6771 69.9098 94.2363C64.5154 94.7924 57.9143 94.7924 50.0965 94.7923H49.7869C41.9691 94.7924 35.3679 94.7924 29.9735 94.2363C24.5485 93.6771 19.8984 92.5221 16.2314 89.8899C12.4646 87.1861 10.1335 83.2203 8.74739 77.8863C7.38255 72.634 6.875 65.8358 6.875 57.1382C6.875 45.5258 7.45272 39.2266 10.2892 34.2771C11.7096 31.7985 13.6012 29.8144 15.8485 27.74C16.816 26.8469 17.8906 25.9007 19.0471 24.8824C19.2319 24.7197 19.4187 24.5552 19.6075 24.3888C20.9901 23.1702 22.5125 21.8199 24.2042 20.251C24.2577 20.2014 24.3128 20.1537 24.3696 20.108C25.2535 19.3966 26.285 18.5196 27.4164 17.5576C29.808 15.5242 32.646 13.1113 35.4797 11.0797Z" fill="black" fill-opacity="0.5"/>
</svg>
