<svg width="100" height="100" viewBox="0 0 100 100" fill="none" xmlns="http://www.w3.org/2000/svg">
<path fill-rule="evenodd" clip-rule="evenodd" d="M62.1163 70.3542H37.8871C36.1621 70.3542 34.7621 68.9542 34.7621 67.2292C34.7621 65.5042 36.1621 64.1042 37.8871 64.1042H62.1163C63.8413 64.1042 65.2413 65.5042 65.2413 67.2292C65.2413 68.9542 63.8413 70.3542 62.1163 70.3542ZM80.2038 25.6583C78.6913 24.325 76.9704 22.8167 74.9204 20.9208C73.9913 20.1708 72.9746 19.3125 71.8954 18.4042C65.8121 13.275 57.4788 6.25 49.8829 6.25C42.3746 6.25 34.5788 12.8833 28.3163 18.2125C27.1579 19.1958 26.0746 20.1208 24.9704 21.0167C23.0288 22.8167 21.3079 24.3292 19.7913 25.6667C9.84544 34.4208 7.97461 36.7167 7.97461 57.1375C7.97461 93.75 18.5621 93.75 49.9996 93.75C81.4329 93.75 92.0246 93.75 92.0246 57.1375C92.0246 36.7125 90.1538 34.4167 80.2038 25.6583Z" fill="#D49499"/>
</svg>
