<svg width="100" height="100" viewBox="0 0 100 100" fill="none" xmlns="http://www.w3.org/2000/svg">
<path fill-rule="evenodd" clip-rule="evenodd" d="M17.1393 19.8472C16.2471 20.9376 15.625 22.5944 15.625 25.4201C15.625 28.2783 16.9569 31.1217 19.465 34.1863C21.9844 37.2647 25.3998 40.2232 29.0738 43.3472C29.2647 43.5096 29.4565 43.6725 29.6489 43.8359C33.0539 46.7285 36.6531 49.7861 39.4177 52.9888C42.3352 56.3687 44.7238 60.3542 44.7238 64.9979C44.7238 72.262 44.76 77.374 45.6783 80.727C46.1143 82.3191 46.6617 83.144 47.1886 83.5919C47.6673 83.9988 48.4576 84.375 50.0155 84.375C51.5721 84.375 52.3586 83.999 52.8338 83.5941C53.3576 83.1479 53.9029 82.3244 54.3366 80.7314C55.2501 77.3766 55.2806 72.2644 55.2806 64.9979C55.2806 60.3543 57.6688 56.3689 60.5859 52.989C63.35 49.7863 66.9488 46.7287 70.3532 43.8361C70.5456 43.6727 70.7373 43.5098 70.9283 43.3474C74.6017 40.2234 78.0166 37.2648 80.5355 34.1865C83.0432 31.1219 84.375 28.2785 84.375 25.4201C84.375 22.5944 83.7529 20.9376 82.8606 19.8472C81.9457 18.7292 80.3931 17.7725 77.6689 17.0669C74.9311 16.3578 71.3228 15.9814 66.6507 15.7971C62.2628 15.624 57.1166 15.6245 51.0952 15.6251C50.7326 15.6251 50.3668 15.6252 49.9978 15.6252C49.6289 15.6252 49.2631 15.6251 48.9006 15.6251C42.8801 15.6245 37.7348 15.624 33.3474 15.7971C28.676 15.9814 25.0681 16.3578 22.3306 17.0669C19.6067 17.7725 18.0542 18.7291 17.1393 19.8472ZM48.8461 9.37509C49.2272 9.37514 49.611 9.37518 49.9978 9.37518C50.3846 9.37518 50.7685 9.37514 51.1496 9.37509C57.1152 9.37437 62.3804 9.37374 66.8971 9.55195C71.6826 9.74076 75.8326 10.1351 79.2359 11.0166C82.6527 11.9015 85.6239 13.355 87.6975 15.8891C89.7938 18.4508 90.625 21.6879 90.625 25.4201C90.625 30.3249 88.32 34.5425 85.3725 38.1446C82.4362 41.7329 78.5775 45.0467 74.9773 48.1084C74.8351 48.2294 74.6932 48.35 74.5518 48.4702C71.0123 51.4792 67.7548 54.2484 65.3173 57.0726C62.7792 60.0134 61.5306 62.5701 61.5306 64.9979L61.5306 65.3957C61.5311 72.1107 61.5315 78.0972 60.3671 82.3735C59.7504 84.6382 58.7217 86.7885 56.887 88.3516C55.0037 89.9561 52.6473 90.625 50.0155 90.625C47.3829 90.625 45.0258 89.9563 43.1407 88.3539C41.3037 86.7924 40.2707 84.6435 39.6502 82.3779C38.4733 78.0807 38.4736 72.0595 38.4738 65.3056L38.4738 64.9979C38.4738 62.5703 37.2251 60.0136 34.6866 57.0728C32.2487 54.2486 28.9907 51.4793 25.4507 48.4704C25.3092 48.3502 25.1674 48.2296 25.0251 48.1086C21.4243 45.0468 17.5651 41.7331 14.6283 38.1447C11.6804 34.5427 9.375 30.3251 9.375 25.4201C9.375 21.6879 10.2062 18.4508 12.3023 15.8892C14.3759 13.3551 17.3469 11.9015 20.7635 11.0166C24.1665 10.1351 28.3161 9.74076 33.101 9.55195C37.6172 9.37374 42.8815 9.37437 48.8461 9.37509Z" fill="black" fill-opacity="0.5"/>
</svg>
