<svg width="100" height="100" viewBox="0 0 100 100" fill="none" xmlns="http://www.w3.org/2000/svg">
<path fill-rule="evenodd" clip-rule="evenodd" d="M79.2618 12.1055C73.0327 10.418 63.8493 10.4263 51.116 10.4222H48.8702C36.1743 10.3763 26.9577 10.418 20.7327 12.1055C13.6952 14.0138 10.416 18.2472 10.416 25.4222C10.416 34.3305 18.4452 41.1555 26.2077 47.7555C33.0493 53.5638 39.5118 59.0597 39.5118 64.9972C39.5118 79.2721 39.5118 89.5888 50.0118 89.5888C60.4868 89.5888 60.4868 79.2721 60.4868 64.9972C60.4868 59.0597 66.9452 53.5638 73.791 47.7555C81.5535 41.1555 89.5827 34.3305 89.5827 25.4222C89.5827 18.2472 86.2993 14.0138 79.2618 12.1055Z" fill="#D49499"/>
</svg>
