<svg width="100" height="100" viewBox="0 0 100 100" fill="none" xmlns="http://www.w3.org/2000/svg">
<g id="settings_light">
<g id="Setting">
<path id="Stroke 1" fill-rule="evenodd" clip-rule="evenodd" d="M50.0007 39.584C55.7543 39.584 60.4173 44.247 60.4173 50.0007C60.4173 55.7543 55.7543 60.4173 50.0007 60.4173C44.247 60.4173 39.584 55.7543 39.584 50.0007C39.584 44.247 44.247 39.584 50.0007 39.584Z" stroke="black" stroke-opacity="0.5" stroke-width="1.5" stroke-linecap="round" stroke-linejoin="round"/>
<path id="Stroke 3" fill-rule="evenodd" clip-rule="evenodd" d="M84.034 30.2087V30.2087C81.1859 25.241 74.8808 23.5412 69.9528 26.4099C65.6663 28.8999 60.3093 25.7843 60.3093 20.8001C60.3093 15.0668 55.6918 10.416 49.9997 10.416V10.416C44.3075 10.416 39.6901 15.0668 39.6901 20.8001C39.6901 25.7843 34.333 28.8999 30.0506 26.4099C25.1185 23.5412 18.8135 25.241 15.9653 30.2087C13.1213 35.1764 14.8089 41.5271 19.741 44.3916C24.0234 46.8858 24.0234 53.1129 19.741 55.6071C14.8089 58.4758 13.1213 64.8264 15.9653 69.79C18.8135 74.7577 25.1185 76.4575 30.0465 73.5929H30.0506C34.333 71.0988 39.6901 74.2144 39.6901 79.1986V79.1986C39.6901 84.9319 44.3075 89.5827 49.9997 89.5827V89.5827C55.6918 89.5827 60.3093 84.9319 60.3093 79.1986V79.1986C60.3093 74.2144 65.6663 71.0988 69.9528 73.5929C74.8808 76.4575 81.1859 74.7577 84.034 69.79C86.8821 64.8264 85.1904 58.4758 80.2624 55.6071H80.2583C75.9759 53.1129 75.9759 46.8858 80.2624 44.3916C85.1904 41.5271 86.8821 35.1764 84.034 30.2087Z" stroke="black" stroke-opacity="0.5" stroke-width="1.5" stroke-linecap="round" stroke-linejoin="round"/>
</g>
</g>
</svg>
