<svg width="100" height="100" viewBox="0 0 100 100" fill="none" xmlns="http://www.w3.org/2000/svg">
<path fill-rule="evenodd" clip-rule="evenodd" d="M50.0003 62.5007C43.1086 62.5007 37.5003 56.8923 37.5003 50.0007C37.5003 43.109 43.1086 37.5007 50.0003 37.5007C56.892 37.5007 62.5003 43.109 62.5003 50.0007C62.5003 56.8923 56.892 62.5007 50.0003 62.5007ZM81.3086 53.809C79.9461 53.0132 79.1295 51.5923 79.1295 50.0007C79.1295 48.409 79.9461 46.9882 81.3128 46.1965C87.2211 42.759 89.2503 35.1257 85.842 29.1715C84.1795 26.2798 81.5003 24.2132 78.292 23.3507C75.1003 22.5048 71.767 22.9465 68.9086 24.609C67.5586 25.4007 65.9461 25.4007 64.5878 24.6132C63.2128 23.8257 62.392 22.3965 62.392 20.8007C62.392 13.9298 56.8336 8.33398 50.0003 8.33398C43.1628 8.33398 37.6045 13.9298 37.6045 20.8007C37.6045 22.4007 36.7836 23.8257 35.4086 24.6173C34.0586 25.3923 32.4461 25.4007 31.0961 24.609C28.2295 22.9465 24.9003 22.4965 21.7003 23.3548C18.492 24.2173 15.817 26.284 14.1586 29.1757C10.7503 35.1298 12.7836 42.7632 18.692 46.1923C20.0545 46.984 20.867 48.409 20.867 50.0007C20.867 51.5923 20.0545 53.0173 18.692 53.8048C12.7836 57.2423 10.7503 64.8798 14.1586 70.8298C15.817 73.7173 18.492 75.784 21.6961 76.6465C24.892 77.5007 28.2295 77.059 31.0961 75.3965C32.442 74.6048 34.0545 74.6048 35.4086 75.384C36.7836 76.1757 37.6045 77.6007 37.6045 79.2007C37.6045 86.0715 43.1628 91.6673 50.0003 91.6673C56.8336 91.6673 62.392 86.0715 62.392 79.2007C62.392 77.6048 63.2128 76.1757 64.5878 75.3882C65.942 74.6048 67.5545 74.6048 68.9086 75.3965C71.7711 77.059 75.1045 77.4923 78.292 76.6507C81.5003 75.7882 84.1795 73.7215 85.842 70.8298C89.2503 64.8798 87.2211 57.2465 81.3086 53.809Z" fill="#D49499"/>
</svg>
