<svg width="100" height="100" viewBox="0 0 100 100" fill="none" xmlns="http://www.w3.org/2000/svg">
<path fill-rule="evenodd" clip-rule="evenodd" d="M36.4588 49.9983C36.4588 57.465 42.5338 63.54 50.0005 63.54C57.4672 63.54 63.5422 57.465 63.5422 49.9983C63.5422 42.5317 57.4672 36.4567 50.0005 36.4567C42.5338 36.4567 36.4588 42.5317 36.4588 49.9983ZM42.7088 49.9983C42.7088 45.9775 45.9797 42.7067 50.0005 42.7067C54.0213 42.7067 57.2922 45.9775 57.2922 49.9983C57.2922 54.0192 54.0213 57.29 50.0005 57.29C45.9797 57.29 42.7088 54.0192 42.7088 49.9983Z" fill="black" fill-opacity="0.5"/>
<path fill-rule="evenodd" clip-rule="evenodd" d="M36.5609 79.1993C36.5609 86.6493 42.5901 92.7077 49.9984 92.7077C57.4068 92.7077 63.4359 86.6493 63.4359 79.1993C63.4359 77.4368 64.6026 76.5743 65.1068 76.2827C65.6026 76.0035 66.8984 75.441 68.3818 76.2952C71.4859 78.1035 75.1026 78.5785 78.5693 77.6535C82.0443 76.7202 84.9484 74.4785 86.7443 71.3452C90.4401 64.9035 88.2318 56.6327 81.8276 52.9077C80.3318 52.0327 80.1693 50.5827 80.1693 49.9993C80.1693 49.416 80.3318 47.966 81.8318 47.0952C88.2318 43.3744 90.4359 35.1035 86.7443 28.6535C84.9443 25.516 82.0401 23.2785 78.5651 22.3452C75.0984 21.4285 71.4859 21.9077 68.3859 23.7077C66.9026 24.5618 65.5943 23.9952 65.1068 23.7118C64.6026 23.4243 63.4359 22.5618 63.4359 20.7993C63.4359 13.3493 57.4068 7.29102 49.9984 7.29102C42.5901 7.29102 36.5609 13.3493 36.5609 20.7993C36.5609 22.5618 35.3943 23.4243 34.8901 23.7118C34.3984 24.0077 33.0943 24.566 31.6193 23.7077C28.5151 21.9077 24.9026 21.4285 21.4318 22.3452C17.9568 23.2785 15.0526 25.516 13.2526 28.6535C9.56093 35.1035 11.7651 43.3744 18.1651 47.0952C19.6651 47.966 19.8234 49.416 19.8234 49.9993C19.8234 50.5785 19.6651 52.0327 18.1651 52.9035C11.7651 56.6327 9.56093 64.9035 13.2526 71.3452C15.0484 74.4785 17.9526 76.716 21.4276 77.6535C24.8901 78.5785 28.5109 78.0993 31.6234 76.291C33.0943 75.4368 34.3984 76.0035 34.8901 76.2827C35.3901 76.5743 36.5609 77.4368 36.5609 79.1993ZM38.0026 70.8702C36.5193 70.016 34.8901 69.5868 33.2609 69.5868C31.6151 69.5868 29.9734 70.0202 28.4776 70.891C26.8193 71.8493 24.8901 72.1077 23.0484 71.6118C21.1943 71.116 19.6359 69.916 18.6776 68.2368C16.6818 64.766 17.8651 60.3077 21.3109 58.3077C24.2943 56.5702 26.0734 53.4618 26.0734 49.9993C26.0734 46.5368 24.2943 43.4285 21.3068 41.691C17.8693 39.6868 16.6859 35.2368 18.6734 31.7618C19.6359 30.0827 21.1943 28.8785 23.0484 28.3827C24.8984 27.8993 26.8234 28.1535 28.4818 29.1118C31.4609 30.8452 35.0234 30.8493 38.0068 29.1327C41.0151 27.3993 42.8109 24.2868 42.8109 20.7993C42.8109 16.7952 46.0359 13.541 49.9984 13.541C53.9609 13.541 57.1859 16.7952 57.1859 20.7993C57.1859 24.2827 58.9776 27.3952 61.9859 29.1285C64.9734 30.8493 68.5359 30.8368 71.5234 29.1118C73.1776 28.1535 75.0984 27.891 76.9484 28.3827C78.8068 28.8785 80.3609 30.0827 81.3234 31.7618C83.3109 35.2368 82.1318 39.691 78.6859 41.691C75.7026 43.4285 73.9234 46.5368 73.9234 49.9993C73.9234 53.4618 75.7026 56.5702 78.6859 58.3077C82.1318 60.3077 83.3151 64.766 81.3234 68.2368C80.3609 69.916 78.8068 71.116 76.9484 71.6118C75.1026 72.1077 73.1776 71.8493 71.5234 70.891C68.5443 69.1577 64.9776 69.1535 61.9901 70.8702C58.9818 72.5993 57.1859 75.716 57.1859 79.1993C57.1859 83.2035 53.9609 86.4577 49.9984 86.4577C46.0359 86.4577 42.8109 83.2035 42.8109 79.1993C42.8109 75.7118 41.0151 72.5993 38.0026 70.8702Z" fill="black" fill-opacity="0.5"/>
</svg>
