<svg width="100" height="100" viewBox="0 0 100 100" fill="none" xmlns="http://www.w3.org/2000/svg">
<path d="M41.5137 80.1172C43.5966 79.6766 56.2886 79.6766 58.3721 80.1172C60.1527 80.5284 62.0781 81.4896 62.0781 83.5879C61.9744 85.5852 60.8026 87.3559 59.1836 88.4805C57.0842 90.117 54.6205 91.1538 52.0449 91.5273C50.6204 91.712 49.2205 91.7162 47.8457 91.5273C45.2658 91.1539 42.8014 90.1174 40.7061 88.4766C39.0829 87.3562 37.9113 85.5852 37.8076 83.5879C37.8076 81.4897 39.7331 80.5285 41.5137 80.1172ZM50.1895 8.33398C58.8566 8.3341 67.7096 12.4471 72.9688 19.2705C76.381 23.6642 77.9473 28.0535 77.9473 34.877V36.6523C77.9473 41.8852 79.3304 44.97 82.374 48.5244C84.6802 51.1429 85.4169 54.504 85.417 58.1504C85.417 61.7929 84.2208 65.2512 81.8232 68.0586C78.6843 71.4242 74.2571 73.5728 69.7393 73.9463C63.1923 74.5044 56.641 74.9746 50.0029 74.9746C43.3607 74.9746 36.8136 74.6932 30.2666 73.9463C25.7445 73.5728 21.3174 71.4242 18.1826 68.0586C15.785 65.2511 14.584 61.7929 14.584 58.1504C14.584 54.5038 15.3257 51.1429 17.6279 48.5244C20.7668 44.97 22.0585 41.8852 22.0586 36.6523V34.877C22.0586 27.8688 23.8067 23.2859 27.4053 18.7998C32.7556 12.2577 41.3315 8.33398 49.8164 8.33398H50.1895Z" fill="#D49499"/>
</svg>
