<svg width="100" height="100" viewBox="0 0 100 100" fill="none" xmlns="http://www.w3.org/2000/svg">
<mask id="mask0_351_33" style="mask-type:luminance" maskUnits="userSpaceOnUse" x="12" y="4" width="78" height="73">
<path fill-rule="evenodd" clip-rule="evenodd" d="M12.5 4.16602H89.5705V76.4493H12.5V4.16602Z" fill="white"/>
</mask>
<g mask="url(#mask0_351_33)">
<path fill-rule="evenodd" clip-rule="evenodd" d="M51.0292 10.416C36.4667 10.416 26.3167 21.8244 26.3167 32.0619C26.3167 40.7244 23.9126 44.7285 21.7876 48.2619C20.0834 51.0994 18.7376 53.341 18.7376 58.2119C19.4334 66.0702 24.6209 70.1994 51.0292 70.1994C77.2917 70.1994 82.6417 65.8869 83.3334 57.941C83.3209 53.341 81.9751 51.0994 80.2709 48.2619C78.1459 44.7285 75.7417 40.7244 75.7417 32.0619C75.7417 21.8244 65.5917 10.416 51.0292 10.416M51.0292 76.4493C31.5459 76.4493 13.9376 75.0743 12.5001 58.4785C12.4876 51.6118 14.5834 48.1202 16.4334 45.0452C18.3042 41.9285 20.0667 38.991 20.0667 32.0618C20.0667 18.591 32.5084 4.16602 51.0292 4.16602C69.5501 4.16602 81.9917 18.591 81.9917 32.0618C81.9917 38.991 83.7542 41.9285 85.625 45.0452C87.475 48.1202 89.5709 51.6118 89.5709 58.2118C88.1167 75.0743 70.5126 76.4493 51.0292 76.4493" fill="black" fill-opacity="0.5"/>
</g>
<path fill-rule="evenodd" clip-rule="evenodd" d="M50.8263 93.7495H50.8179C46.1471 93.7454 41.7263 91.687 38.3721 87.9495C37.2179 86.6704 37.3221 84.6912 38.6054 83.5412C39.8888 82.3829 41.8638 82.487 43.0179 83.7745C45.1763 86.1787 47.9471 87.4995 50.8221 87.4995H50.8263C53.7138 87.4995 56.4971 86.1787 58.6596 83.7704C59.8179 82.4912 61.7929 82.387 63.0721 83.5412C64.3554 84.6954 64.4596 86.6745 63.3054 87.9537C59.9388 91.6912 55.5096 93.7495 50.8263 93.7495" fill="black" fill-opacity="0.5"/>
</svg>
